<svg width="55px" height="54px" viewBox="485 771 55 54" version="1.1" xmlns="http://www.w3.org/2000/svg" xmlns:xlink="http://www.w3.org/1999/xlink">
    <g id="Page-1" stroke="none" stroke-width="1" fill="none" fill-rule="evenodd" transform="translate(485.000000, 771.000000)">
        <path d="M26.7025235,0 C11.9970529,0 0.00111176471,11.5972941 0.00111176471,25.4117647 C-0.0147705882,26.2503529 0.749170588,27 1.58775882,27 C2.42793529,27 3.1887,26.2503529 3.17599412,25.4117647 C3.17599412,13.4428235 13.6853471,3.17647059 26.7025235,3.17647059 C35.0915824,3.17647059 42.4768765,7.61558824 46.6555235,14.2941176 L41.2952294,14.2941176 C40.4169353,14.2941176 39.7069941,15.0056471 39.7069941,15.8823529 C39.7069941,16.7590588 40.4169353,17.4705882 41.2952294,17.4705882 L50.8246412,17.4705882 C51.7013471,17.4705882 52.4112882,16.7590588 52.4112882,15.8823529 L52.4112882,6.35294118 C52.4112882,5.47623529 51.7013471,4.76470588 50.8246412,4.76470588 C49.9463471,4.76470588 49.2364059,5.47623529 49.2364059,6.35294118 L49.2364059,12.4581176 C44.4812294,4.96482353 36.1382294,0 26.7025235,0" id="Fill-1" fill="#151e61"></path>
        <g id="Group-5" transform="translate(1.588235, 27.000000)">
            <polygon id="path-1" points="26.2060412 27 52.4117647 27 52.4117647 0 0.000317647058 0 0.000317647058 27"></polygon>
            <g id="Clip-4"></g>
            <path d="M50.8238471,0 C49.9852588,0 49.2244941,0.749647059 49.2356118,1.58823529 C49.2356118,13.5571765 38.7262588,23.8235294 25.7090824,23.8235294 C17.3200235,23.8235294 9.93631765,19.3844118 5.75767059,12.7058824 L11.1179647,12.7058824 C11.9946706,12.7058824 12.7062,11.9943529 12.7062,11.1176471 C12.7062,10.2409412 11.9946706,9.52941176 11.1179647,9.52941176 L1.58855294,9.52941176 C0.711847059,9.52941176 0.000317647058,10.2409412 0.000317647058,11.1176471 L0.000317647058,20.6470588 C0.000317647058,21.5237647 0.711847059,22.2352941 1.58855294,22.2352941 C2.46525882,22.2352941 3.17678824,21.5237647 3.17678824,20.6470588 L3.17678824,14.5418824 C7.93196471,22.0351765 16.2733765,27 25.7090824,27 C40.4161412,27 52.4120824,15.4027059 52.4120824,1.58823529 C52.4279647,0.749647059 51.6624353,0 50.8238471,0" id="Fill-3" fill="#151e61" mask="url(#mask-2)"></path>
        </g>
    </g>
</svg>
